<?xml version="1.0" encoding="UTF-8"?>
<svg id="Layer_1" xmlns="http://www.w3.org/2000/svg" version="1.1" viewBox="0 0 88.4 100">
  <!-- Generator: Adobe Illustrator 29.7.0, SVG Export Plug-In . SVG Version: 2.1.1 Build 138)  -->
  <defs>
    <style>
      .st0 {
        fill: #f4f4f4;
      }
    </style>
  </defs>
  <path class="st0" d="M85.6,16.3L25.2.1c-2-.5-4.1.7-4.6,2.7L.1,79.1c-.5,2,.7,4.1,2.7,4.6l60.4,16.2c2,.5,4.1-.7,4.6-2.7l20.4-76.3c.5-2-.7-4.1-2.7-4.6ZM65.2,96.5c-.2.6-.7.9-1.3.8L3.5,81.1c-.6-.2-.9-.7-.8-1.3L23.2,3.5c.2-.6.7-.9,1.3-.8l60.4,16.2c.6.2.9.7.8,1.3l-20.4,76.3ZM74.7,28.1c-.2.7-.9,1.1-1.7,1l-22.6-6c-.7-.2-1.1-.9-1-1.7s.9-1.1,1.7-1l22.6,6c.7.2,1.2.9,1,1.7ZM72.4,36.3c-.2.7-.9,1.1-1.7,1l-22.6-6c-.7-.2-1.1-.9-1-1.7s.9-1.1,1.7-1l22.6,6c.7.2,1.2.9,1,1.7ZM68.2,52c-.2.7-.9,1.1-1.7,1l-22.6-6c-.7-.2-1.1-.9-1-1.7s.9-1.1,1.7-1l22.6,6c.7.2,1.2.9,1,1.7ZM66,60.3c-.2.7-.9,1.1-1.7,1l-22.6-6c-.7-.2-1.1-.9-1-1.7s.9-1.1,1.7-1l22.6,6c.7.2,1.2.9,1,1.7ZM61.8,76c-.2.7-.9,1.1-1.7,1l-22.6-6c-.7-.2-1.1-.9-1-1.7s.9-1.1,1.7-1l22.6,6c.7.2,1.2.9,1,1.7ZM59.6,84.2c-.2.7-.9,1.1-1.7,1l-22.6-6c-.7-.2-1.1-.9-1-1.7s.9-1.1,1.7-1l22.6,6c.7.2,1.2.9,1,1.7ZM45,15.8l-2,1.2c-1.3-2.4-3.5-4.4-6.3-5.1-5.3-1.4-10.9,1.8-12.3,7.1s1.8,10.9,7.1,12.3,10.9-1.8,12.3-7.1.4-3.1.1-4.6l2.5-1.6c.6-.4.8-1.2.4-1.9-.4-.6-1.2-.8-1.9-.4ZM41.2,23.5c-1,3.9-5.1,6.2-9,5.2s-6.2-5.1-5.2-9,5.1-6.2,9-5.2,3.8,2.1,4.7,4l-6.1,3.8-2.2-3.8c-.4-.6-1.2-.9-1.8-.5s-.9,1.2-.5,1.8l2.9,5c.2.3.5.5.8.6h0c.4,0,.7,0,1-.2l6.5-4.1c0,.8,0,1.5-.2,2.3ZM38.5,39.8l-2,1.2c-1.3-2.4-3.5-4.4-6.3-5.1-5.3-1.4-10.9,1.8-12.3,7.1s1.8,10.9,7.1,12.3,10.9-1.8,12.3-7.1.4-3.1.1-4.6l2.5-1.6c.6-.4.8-1.2.4-1.9-.4-.6-1.2-.8-1.9-.4ZM34.7,47.5c-1,3.9-5.1,6.2-9,5.2-3.9-1-6.2-5.1-5.2-9s5.1-6.2,9-5.2,3.8,2.1,4.7,4l-6.1,3.8-2.2-3.8c-.4-.6-1.2-.9-1.8-.5s-.9,1.2-.5,1.8l2.9,5c.2.3.5.5.8.6h0c.4,0,.7,0,1-.2l6.5-4.1c0,.8,0,1.5-.2,2.3ZM32.1,63.7l-2,1.2c-1.3-2.4-3.5-4.4-6.3-5.1-5.3-1.4-10.9,1.8-12.3,7.1s1.8,10.9,7.1,12.3,10.9-1.8,12.3-7.1.4-3.1.1-4.6l2.5-1.6c.6-.4.8-1.2.4-1.9-.4-.6-1.2-.8-1.9-.4ZM28.3,71.4c-1,3.9-5.1,6.2-9,5.2s-6.2-5.1-5.2-9c1-3.9,5.1-6.2,9-5.2s3.8,2.1,4.7,4l-6.1,3.8-2.2-3.8c-.4-.6-1.2-.9-1.8-.5s-.9,1.2-.5,1.8l2.9,5c.2.3.5.5.8.6h0c.4,0,.7,0,1-.2l6.5-4.1c0,.8,0,1.5-.2,2.3Z"/>
</svg>