<?xml version="1.0" encoding="UTF-8"?>
<svg id="Layer_1" xmlns="http://www.w3.org/2000/svg" version="1.1" viewBox="0 0 102.1 24.9">
  <!-- Generator: Adobe Illustrator 29.2.1, SVG Export Plug-In . SVG Version: 2.1.0 Build 116)  -->
  <defs>
    <style>
      .st0 {
        fill: #004371;
      }

      .st1 {
        fill: #006fb4;
      }
    </style>
  </defs>
  <path class="st0" d="M6.5,4.9H0V.3h18.6v4.6h-6.6v19.7h-5.5V4.9Z"/>
  <path class="st0" d="M22,.6c2-.3,4.6-.5,7.4-.5,4.6,0,7.6.8,9.9,2.6,2.5,1.9,4.1,4.9,4.1,9.1s-1.7,7.8-4,9.8c-2.6,2.1-6.4,3.1-11.2,3.1s-4.9-.2-6.2-.4V.6ZM27.5,20.4c.5.1,1.2.1,1.9.1,5,0,8.2-2.7,8.2-8.5,0-5-2.9-7.7-7.6-7.7s-2,.1-2.5.2v15.9Z"/>
  <path class="st1" d="M64,23.5c-1.4.6-4,1.3-6.8,1.3s-6.1-1-7.9-3-2.4-4.7-2.4-7.1c0-4,1.6-8.2,4.8-11.1,2.6-2.3,6.1-3.6,10-3.6s5,.7,5.7,1.1l-1,2.5c-1.3-.6-2.9-1-5.1-1s-5.5,1-7.5,3c-2.3,2.1-3.6,5.6-3.6,8.9s2.3,7.8,7.7,7.8,2.8-.3,3.7-.7l1.4-7.2h-4.9l.5-2.4h7.8l-2.2,11.6Z"/>
  <path class="st1" d="M81.6,23.5c-1.3.8-3.4,1.4-5.8,1.4-4.6,0-6.6-3.1-6.6-7s3.9-11.2,9.5-11.2,5.1,2,5.1,4.5c0,4.6-5.1,5.8-11.6,5.7-.1.8,0,2.4.4,3.3.7,1.5,2.1,2.3,3.9,2.3s3.6-.6,4.7-1.2l.4,2.2ZM78.3,9c-2.8,0-5,2.8-5.7,5.5,4.7,0,8.4-.6,8.4-3.3s-1.1-2.2-2.7-2.2Z"/>
  <path class="st1" d="M85.7,24.5l2.3-12.3c.4-1.9.6-3.6.8-5.1h2.7l-.4,3.4h0c1.5-2.4,3.9-3.8,6.4-3.8s4.4,1.2,4.4,4.9-.1,1.9-.3,2.8l-1.9,10.2h-3l1.9-10c.1-.7.3-1.5.3-2.2,0-1.8-.7-3.1-2.7-3.1s-5.1,2.6-5.9,6.9l-1.6,8.5h-3Z"/>
</svg>